<svg width="2509" height="1934" viewBox="0 0 2509 1934" fill="none" xmlns="http://www.w3.org/2000/svg">
<g id="newest one">
<rect width="2509" height="1934" fill="white"/>
<path id="U" d="M653.543 817.37V936.916V986.843C653.543 1018.96 671.935 1083.32 745.503 1083.89C819.071 1084.45 839.307 1019.43 840.229 986.843V936.916V772.365C840.229 761.114 850.369 760.645 855.44 761.817H944.634C954.591 761.817 957.541 768.849 957.771 772.365V781.507V986.843C961.643 1059.98 910.524 1123.73 884.48 1146.47C775.926 1232.97 680.509 1199.21 608.6 1146.47C551.073 1104.28 536.23 1022.47 536 986.843V948.167V858.156V772.365C536 765.052 543.375 762.286 547.063 761.817H636.257C650.086 759.004 653.543 767.677 653.543 772.365V781.507V817.37Z" fill="#6DB1E9"/>
<rect id="x right" width="118.196" height="509.19" rx="8" transform="matrix(0.700712 -0.713444 0.701506 0.712663 1049.04 832.937)" fill="#EBAB42"/>
<rect id="x left" width="118.196" height="509.19" rx="8" transform="matrix(0.70072 0.713436 -0.701498 0.712671 1406.54 748)" fill="#F6C249"/>
<rect id="i " x="1870.46" y="757.048" width="117.543" height="433.176" rx="8" fill="#D45565"/>
<ellipse id="circleand" cx="1622.93" cy="1020.05" rx="64.9943" ry="66.1015" fill="#57AD6A"/>
<ellipse id="topcircleand" cx="1645.05" cy="924.411" rx="59.4628" ry="60.4759" fill="#64C671"/>
<rect id="rectangleand" width="71.8686" height="171.393" rx="8" transform="matrix(0.700712 -0.713444 0.701506 0.712663 1602.18 965.841)" fill="#64C671"/>
<path id="yellowpath" d="M1219 1836.5C1326.17 1656 1491.9 1199.3 1297.5 816.5C1233.83 736 1091.4 638.1 1031 890.5C1051 1243 1302.5 1154.5 1334.5 1035C1366.5 915.5 1380.5 798.5 1369.5 756" stroke="black" stroke-width="8"/>
<circle id="evensmallerblue" cx="2108" cy="1119" r="2" fill="#6DB1E9"/>
<path id="bluepath" d="M2108 1119C2089.5 1093 2041.6 1035.7 1998 1014.5C1943.5 988 1443 773 1289.5 817C1020 856.5 1114.5 1058.5 1121 1071.5C1127.5 1084.5 1190.5 1156.5 1300.5 1176.5" stroke="black" stroke-width="8"/>
<path id="smallestYellow" d="M1210.13 1835.46L1219.54 1826.11C1220.37 1825.29 1221.71 1825.3 1222.54 1826.13L1231.89 1835.54C1232.71 1836.37 1232.7 1837.71 1231.87 1838.54L1222.46 1847.89C1221.63 1848.71 1220.29 1848.7 1219.46 1847.87L1210.11 1838.46C1209.29 1837.63 1209.3 1836.29 1210.13 1835.46Z" fill="#F6C249" stroke="#F6C249"/>
<circle id="smallestGreen" cx="367" cy="934" r="3" fill="#64C671"/>
<path id="smallestreds" d="M1235.57 143.204L1238.58 143.326C1238.71 143.331 1238.81 143.442 1238.81 143.572L1238.69 146.58C1238.68 146.711 1238.57 146.813 1238.44 146.808L1235.43 146.686C1235.3 146.68 1235.2 146.57 1235.2 146.439L1235.33 143.431C1235.33 143.3 1235.44 143.198 1235.57 143.204Z" fill="#D45565" stroke="#D45565"/>
<path id="redpath" d="M367 934C366.833 958.5 372.3 1010.5 395.5 1022.5C424.5 1037.5 690.5 1149.5 947 1162.5C1203.5 1175.5 1364 1098.5 1399 1036C1434 973.5 1423 877 1245 830.5C1151.33 827.333 981.7 866.5 1052.5 1048.5C1074.33 1088.17 1123.5 1172.6 1145.5 1193" stroke="black" stroke-width="8"/>
</g>
</svg>
